HIERARCHY
ROOT Hips
{
	OFFSET 0.00000 0.00000 0.00000
	CHANNELS 6 Xposition Yposition Zposition Zrotation Yrotation Xrotation 
	JOINT LHipJoint
	{
		OFFSET 0 0 0
		CHANNELS 3 Zrotation Yrotation Xrotation
		JOINT LeftHip
		{
			OFFSET 1.61024 -1.73873 0.75100
			CHANNELS 3 Zrotation Yrotation Xrotation
			JOINT LeftKnee
			{
				OFFSET 2.29819 -6.31424 0.00000
				CHANNELS 3 Zrotation Yrotation Xrotation
				JOINT LeftAnkle
				{
					OFFSET 2.76618 -7.60002 0.00000
					CHANNELS 3 Zrotation Yrotation Xrotation
					JOINT LeftToe
					{
						OFFSET 0.16838 -0.46263 2.02361
						CHANNELS 3 Zrotation Yrotation Xrotation
						End Site
						{
							OFFSET 0.00000 -0.00000 1.04662
						}
					}
				}
			}
		}
	}
	JOINT RHipJoint
	{
		OFFSET 0 0 0
		CHANNELS 3 Zrotation Yrotation Xrotation
		JOINT RightHip
		{
			OFFSET -1.46153 -1.73873 0.75100
			CHANNELS 3 Zrotation Yrotation Xrotation
			JOINT RightKnee
			{
				OFFSET -2.38373 -6.54924 0.00000
				CHANNELS 3 Zrotation Yrotation Xrotation
				JOINT RightAnkle
				{
					OFFSET -2.80314 -7.70157 0.00000
					CHANNELS 3 Zrotation Yrotation Xrotation
					JOINT RightToe
					{
						OFFSET -0.16142 -0.44349 2.02101
						CHANNELS 3 Zrotation Yrotation Xrotation
						End Site
						{
							OFFSET -0.00000 -0.00000 1.04381
						}
					}
				}
			}
		}
	}
	JOINT lowerback
	{
		OFFSET 0 0 0
		CHANNELS 3 Zrotation Yrotation Xrotation
		JOINT Chest
		{
			OFFSET -0.01629 1.66985 0.14750
			CHANNELS 3 Zrotation Yrotation Xrotation
			JOINT Chest2
			{
				OFFSET 0.02086 1.62378 0.20980
				CHANNELS 3 Zrotation Yrotation Xrotation
				JOINT lowerneck
				{
					OFFSET 0 0 0
					CHANNELS 3 Zrotation Yrotation Xrotation
					JOINT Neck
					{
						OFFSET -0.05690 1.78719 0.08702
						CHANNELS 3 Zrotation Yrotation Xrotation
						JOINT Head
						{
							OFFSET 0.16035 1.73871 -0.38470
							CHANNELS 3 Zrotation Yrotation Xrotation
							End Site
							{
								OFFSET 0.05645 1.80914 -0.14081
							}
						}
					}
				}
				JOINT LeftCollar
				{
					OFFSET 0 0 0
					CHANNELS 3 Zrotation Yrotation Xrotation
					JOINT LeftShoulder
					{
						OFFSET 2.83089 1.66494 -0.46008
CHANNELS 3 Zrotation Xrotation Yrotation
						JOINT LeftElbow
						{
OFFSET 0 -5.548930 -0.000000
CHANNELS 3 Zrotation Xrotation Yrotation
							JOINT LeftWrist
							{
OFFSET 0 -3.028980 -0.000000
CHANNELS 3 Zrotation Xrotation Yrotation
								JOINT lhand
								{
									OFFSET 0 0 0
CHANNELS 3 Zrotation Xrotation Yrotation
									JOINT LFingers
									{
OFFSET 0 -0.640950 -0.000000
CHANNELS 3 Zrotation Xrotation Yrotation
										End Site
										{
OFFSET 0 -0.516750 -0.000000
										}
									}
								}
								JOINT LThumb
								{
OFFSET 0 0.000000 0.000000
CHANNELS 3 Zrotation Xrotation Yrotation
									End Site
									{
OFFSET 0 -0.524640 0.524640
									}
								}
							}
						}
					}
				}
				JOINT RightCollar
				{
					OFFSET 0 0 0
					CHANNELS 3 Zrotation Yrotation Xrotation
					JOINT RightShoulder
					{
						OFFSET -2.84442 1.45761 -0.18088
CHANNELS 3 Zrotation Xrotation Yrotation
						JOINT RightElbow
						{
OFFSET 0 -5.351900 -0.000000
CHANNELS 3 Zrotation Xrotation Yrotation
							JOINT RightWrist
							{
OFFSET 0 -3.025310 -0.000000
CHANNELS 3 Zrotation Xrotation Yrotation
								JOINT rhand
								{
									OFFSET 0 0 0
CHANNELS 3 Zrotation Xrotation Yrotation
									JOINT RFingers
									{
OFFSET 0 -0.783890 -0.000000
CHANNELS 3 Zrotation Xrotation Yrotation
										End Site
										{
OFFSET 0 -0.631990 -0.000000
										}
									}
								}
								JOINT RThumb
								{
OFFSET 0 0.000000 0.000000
CHANNELS 3 Zrotation Xrotation Yrotation
									End Site
									{
OFFSET 0 -0.641640 0.641640
									}
								}
							}
						}
					}
				}
			}
		}
	}
}
MOTION
Frames: 6
Frame Time: 0.008333333333333333
1.161211 17.752498 -0.027605 -364.568967 107.340553 -339.968452 0.000000 0.000000 0.000000 -11.136384 -31.270949 -11.797890 0.147103 2.471762 6.811293 -0.030596 9.910555 -13.600085 1.324472 -7.288436 -20.572781 0.000000 0.000000 0.000000 17.595381 12.389304 -9.154901 -0.120322 -2.235952 6.158286 -0.293817 -20.167488 -30.580300 -0.006551 0.522184 -1.434968 -0.317461 2.486947 -10.465261 -1.940841 4.929564 -16.362082 -2.076653 3.061042 -11.779609 -8.481677 -11.425545 -8.216384 7.959811 -15.213905 8.868726 2.600431 -7.282547 5.262581 0.000000 0.000000 0.000000 34.708948 30.585804 23.247133 11.373026 -18.857709 1.894750 48.172595 19.448124 -8.958040 0.000000 0.000000 0.000000 -7.125000 0.000000 0.000000 19.214678 42.438667 1.265319 0.000000 0.000000 0.000000 -138.697560 -47.033456 -53.710719 -20.318344 -31.023850 -5.694552 -34.210036 -48.471149 0.885477 0.000000 0.000000 0.000000 7.125000 0.000000 0.000000 -6.081975 31.017259 -2.088669
1.148219 17.758162 0.009003 -364.021477 107.074917 -339.730007 0.000000 0.000000 0.000000 -11.030444 -31.550342 -10.855614 0.118387 2.218475 6.109880 -0.134774 10.990850 -13.444676 1.415359 -7.524252 -21.278093 0.000000 0.000000 0.000000 17.828493 12.311922 -9.535350 -0.150803 -2.502568 6.896764 -0.115604 -20.405395 -29.661546 -0.042975 1.338107 -3.679564 -0.687795 2.240305 -10.181204 -1.627865 4.524281 -15.914431 -1.515482 2.886053 -11.457821 -8.422496 -11.241331 -8.168770 7.952503 -15.016693 9.602637 2.595419 -7.173645 5.462371 0.000000 0.000000 0.000000 33.818730 31.191672 17.897061 12.754411 -20.925190 2.365636 45.838380 14.272812 -10.578769 0.000000 0.000000 0.000000 -7.125000 0.000000 0.000000 17.402708 44.261847 0.329323 0.000000 0.000000 0.000000 -138.543357 -46.370769 -54.738207 -24.319660 -35.499821 -7.891679 -33.220141 -54.198584 -0.501948 0.000000 0.000000 0.000000 7.125000 0.000000 0.000000 -5.209412 29.361761 -1.993078
1.112351 17.775457 0.060506 -363.616731 106.661775 -339.896913 0.000000 0.000000 0.000000 -11.171840 -31.522970 -9.271788 0.068114 1.684178 4.633602 -0.255124 12.191166 -13.333985 1.324087 -7.285228 -20.564155 0.000000 0.000000 0.000000 17.862078 12.353124 -9.940932 -0.201432 -2.890316 7.973454 -0.030308 -20.105417 -28.640383 -0.109602 2.134134 -5.876403 -1.596103 2.065706 -9.889660 -1.757485 4.102273 -14.863501 -1.085833 2.687411 -10.414138 -8.044749 -11.092834 -7.969913 9.618413 -15.009963 8.915272 3.070343 -7.063790 5.322764 0.000000 0.000000 0.000000 32.806289 35.537660 -7.128503 30.814264 -41.562751 11.953045 33.967459 -16.349598 -18.159652 0.000000 0.000000 0.000000 -7.125000 0.000000 0.000000 6.031494 51.460272 -0.962656 0.000000 0.000000 0.000000 -129.667945 -42.159611 -44.444171 -43.816875 -50.158165 -21.331266 -33.228501 -65.725555 -2.176294 0.000000 0.000000 0.000000 7.125000 0.000000 0.000000 -5.098967 27.368812 -2.191710
1.048094 17.785345 0.138495 -361.056873 107.662913 -338.835845 0.000000 0.000000 0.000000 -10.319984 -32.940678 -8.433307 0.111409 2.151975 5.925896 -0.271541 12.872688 -14.325104 1.190929 -6.925002 -19.493386 0.000000 0.000000 0.000000 19.293533 10.717677 -8.861670 -0.175312 -2.696872 7.435838 0.143882 -20.050034 -27.226508 -0.137818 2.391920 -6.590259 -2.323815 1.156170 -9.742553 -1.367529 2.822930 -14.269064 -0.241187 2.102172 -9.850723 -7.895999 -10.158948 -7.924834 9.737780 -13.987216 11.948368 3.145409 -6.469155 6.169093 0.000000 0.000000 0.000000 34.432678 32.381605 -34.123520 77.069787 -59.351457 48.827036 25.312406 -40.935599 -21.793993 0.000000 0.000000 0.000000 -7.125000 0.000000 0.000000 -3.671740 53.803297 0.795385 0.000000 0.000000 0.000000 -107.685290 -39.616694 -16.355101 -109.312059 -58.532182 -76.641340 -32.410167 -70.944001 -5.819165 0.000000 0.000000 0.000000 7.125000 0.000000 0.000000 -4.197789 23.101046 -2.219862
0.915546 17.799914 0.231074 -359.808162 105.936606 -339.945875 0.000000 0.000000 0.000000 -11.430757 -31.579790 -6.066237 0.115707 2.193184 6.039865 -0.350048 13.739307 -14.607318 1.217079 -6.997685 -19.708552 0.000000 0.000000 0.000000 19.566314 11.481240 -7.282632 -0.215133 -2.986120 8.240175 0.385192 -20.685946 -26.211837 -0.291282 3.470505 -9.591577 -2.863838 0.026317 -10.320623 -1.061228 1.208167 -13.309252 0.431603 1.276178 -8.398507 -6.336252 -7.372967 -10.816515 8.012939 -10.399523 19.296096 2.602149 -4.493140 8.545938 0.000000 0.000000 0.000000 31.976088 11.384115 -62.483303 110.996806 -58.266307 78.077890 22.609613 -54.940643 -20.132565 0.000000 0.000000 0.000000 -7.125000 0.000000 0.000000 -5.938302 51.543298 0.960085 0.000000 0.000000 0.000000 -65.617987 -39.468067 39.108072 -139.179833 -48.548205 -100.948304 -32.055280 -57.972445 -5.752933 0.000000 0.000000 0.000000 7.125000 0.000000 0.000000 -3.942876 23.204679 -2.075144
0.712489 17.798817 0.335232 -358.017427 101.467184 -340.646037 0.000000 0.000000 0.000000 -13.281799 -26.994790 -2.394092 0.036060 1.225401 3.369167 -0.374055 14.048077 -14.800873 0.818725 -5.773150 -16.127747 0.000000 0.000000 0.000000 19.054785 13.443871 -6.738969 -0.354238 -3.823900 10.581720 0.473498 -20.031604 -24.357148 -0.773150 5.614343 -15.669409 -4.805657 -0.933093 -8.722255 -0.408268 -0.277679 -12.125477 2.192102 0.602076 -7.920146 -5.518425 -4.157052 -13.950685 7.725887 -6.077758 23.852702 2.908302 -2.238182 10.333972 0.000000 0.000000 0.000000 23.965255 -12.707305 -88.120865 114.927933 -57.516571 81.408216 31.205069 -78.167772 -19.788301 0.000000 0.000000 0.000000 -7.125000 0.000000 0.000000 2.950898 52.771428 -0.568612 0.000000 0.000000 0.000000 -33.469966 -19.270637 74.395688 -126.870939 -54.180533 -91.306857 -29.006604 -38.809623 -2.645098 0.000000 0.000000 0.000000 7.125000 0.000000 0.000000 -1.843006 26.953381 -0.810495
